<svg width="24" height="24" viewBox="0 0 24 24" fill="none" xmlns="http://www.w3.org/2000/svg" class="ltr-18tpq4v" data-name="AudioDescription"><path fill-rule="evenodd" clip-rule="evenodd" d="M21.9781 7.51999H22.262C23.3699 8.81828 24 10.4801 24 12.2077C24 13.7414 23.5049 15.2301 22.6221 16.4453H22.3347H21.85H21.5661C22.5598 15.2613 23.1206 13.7691 23.1206 12.2077C23.1206 10.4489 22.404 8.75596 21.1611 7.51999H21.445H21.9781ZM6.91381 16.4795H8.87336V7.52653H6.42566L0 16.4795H2.87701L3.63174 15.2955H6.91381V16.4795ZM4.8625 13.4298H6.92592V10.2239L4.8625 13.4298ZM12.3019 9.62285C13.6209 9.62285 14.6838 10.6926 14.6838 12.0048C14.6838 13.3204 13.6209 14.3902 12.3019 14.3902H11.6787V9.62285H12.3019ZM12.5442 16.4744C15.0127 16.4744 17.0207 14.4698 17.0207 12.0048C17.0207 9.52937 15.0335 7.52828 12.565 7.52828H12.5373H9.79877V16.4778H12.5442V16.4744ZM20.0102 7.51999H19.7263H19.1932H18.9093C20.1522 8.75596 20.8688 10.4489 20.8688 12.2077C20.8688 13.7691 20.308 15.2613 19.3143 16.4453H19.5982H20.0829H20.3634C21.2531 15.2301 21.7482 13.7414 21.7482 12.2077C21.7482 10.4801 21.1181 8.81828 20.0102 7.51999ZM17.4745 7.51999H17.7584C18.8663 8.81828 19.4895 10.4801 19.4895 12.2077C19.4895 13.7414 19.0013 15.2301 18.1116 16.4453H17.8277H17.3465H17.0626C18.0493 15.2613 18.6101 13.7691 18.6101 12.2077C18.6101 10.4489 17.9004 8.75596 16.6575 7.51999H16.9345H17.4745Z" fill="currentColor"></path></svg>