<svg width="16" height="16" viewBox="0 0 16 16" fill="none" xmlns="http://www.w3.org/2000/svg" class="Hawkins-Icon Hawkins-Icon-Small" data-name="Subtitles"><path fill-rule="evenodd" clip-rule="evenodd" d="M0 1.75C0 1.33579 0.335786 1 0.75 1H15.25C15.6642 1 16 1.33579 16 1.75V11.25C16 11.6642 15.6642 12 15.25 12H12.75V14C12.75 14.2652 12.61 14.5106 12.3817 14.6456C12.1535 14.7806 11.8709 14.785 11.6386 14.6572L6.80736 12H0.75C0.335786 12 0 11.6642 0 11.25V1.75ZM1.5 2.5V10.5H7H7.19264L7.36144 10.5928L11.25 12.7315V11.25V10.5H12H14.5V2.5H1.5ZM6 5.75L3 5.75V4.25L6 4.25V5.75ZM13 7.25H10V8.75H13V7.25ZM8 8.75L3 8.75V7.25L8 7.25V8.75ZM13 4.25H8V5.75H13V4.25Z" fill="currentColor"></path></svg>