<svg id="maturity-advisory-8751" viewBox="0 0 100 100" class="svg-icon svg-icon-maturity-advisory-8751 "><path id="FIll---Black" fill="#000" d="M88.726 100H11.274C5.05 100 0 94.957 0 88.725v-77.45C0 5.052 5.05 0 11.274 0h77.452C94.956 0 100 5.051 100 11.276v77.449C100 94.957 94.955 100 88.726 100"></path><path id="icon" fill="#FFFFFE" d="M80.034 43.774c.206.42.414.848.624 1.28l.314.648.157.324.312.648c1.397 2.908 2.667 5.653 2.96 6.592.592 1.91 1.043 5.02-1.883 10.007-3 5.108-6.553 6.458-8.011 6.458h-10.68c-4.826 0-6.255-2.623-6.678-4.058 3.704-.259 5.904-1.467 6.899-2.175 1.216.781 4.132 2.11 9.011 1.147 5.671-1.114 7.011-6.208 6.946-8.956.015-.22.03-.435.03-.654zM56.28 27.544c4.53 0 6.914 3.442 7.379 4.188l.054.09.028.046a.938.938 0 00.75.473c.337-.011.615-.129.799-.383 1.425-1.983 4.069-2.195 4.99-2.208h.152c.108 0 .17.004.174.003l.065.002c1.777 0 3.227.556 4.302 1.664 1.745 1.8 2.167 4.62 2.268 6.056l.003 17.998c-.153 2.618-1.695 6.537-6.796 6.537-2.762 0-4.246-.594-5.008-1.09l-.2-.361V39.361c0-.419-.183-.821-.506-1.094a1.454 1.454 0 00-1.171-.318c-.695.116-1.197.724-1.197 1.448v21.318l-.14.318c-.992.816-2.748 1.787-5.48 1.787-2.725 0-4.232-.88-5.017-1.624l-.14-.318V40.84a1.443 1.443 0 00-1.437-1.437l-.242.02a1.449 1.449 0 00-1.192 1.446v20.318l-.134.31c-.724.607-2.052 1.323-4.263 1.323-2.59 0-4.196-1.044-5.087-1.923l-.115-.297V43.714c0-.426-.186-.823-.516-1.101a1.41 1.41 0 00-1.156-.316c-.686.11-1.197.732-1.197 1.443v16.769l-.224.372c-1.716.984-3.632.838-3.732.833-5.303 0-5.636-5.6-5.647-5.793v-15.67c0-3.173 3.805-5.191 5.794-5.191 2.042 0 2.905.382 2.905.382a.892.892 0 00.706.05.92.92 0 00.537-.463c.019-.037 1.924-3.794 5.85-4.266 3.834-.44 5.207 1.398 5.254 1.466a.937.937 0 00.848.397.894.894 0 00.756-.547c.022-.042 2.036-4.534 6.983-4.534zM39.531 6.777l4.541 10.617 9.244-6.922-1.377 11.465 11.465-1.377-3.604 4.807a10.95 10.95 0 00-3.52-.584c-4.276 0-6.905 2.388-8.287 4.203-1.352-.742-3.315-1.27-5.88-.961-3.722.443-6.052 2.896-7.183 4.462a14.683 14.683 0 00-2.49-.192c-3.404 0-8.551 3.176-8.551 7.953v6.89l-8.233.985 6.929-9.238-10.623-4.545 10.623-4.54-6.929-9.24 11.468 1.377-1.376-11.465 9.242 6.922 4.54-10.617z"></path><path id="type" fill="#FFFFFE" d="M56.403 88.078v4.617h-1.88v-2.937h-8.667v-1.68h10.547zm-14.57-.17v4.497h-1.865v-2.937h-8.416v-1.56h10.282zm22.624-.714c1.942 0 3.282.19 4.102.578.85.4 1.28 1.049 1.28 1.929 0 .886-.427 1.537-1.269 1.934-.813.38-2.195.574-4.113.574-1.927 0-3.316-.196-4.13-.58-.85-.401-1.28-1.05-1.28-1.928 0-.892.427-1.54 1.266-1.935.805-.386 2.163-.572 4.144-.572zm0 1.59c-1.44 0-2.425.086-2.93.253-.466.149-.692.366-.692.664 0 .297.233.516.702.662.524.17 1.505.254 2.92.254 1.419 0 2.394-.084 2.903-.254.466-.146.691-.363.691-.662 0-.298-.23-.512-.694-.664-.514-.167-1.487-.252-2.9-.252zm-8.054-9.576v8.57h-1.88V85.44h-2.96v-1.668h2.96v-1.18h-2.96v-1.648h2.96v-1.735h1.88zm-5.158.732v4.28H46.53v1.833a37.375 37.375 0 002.561-.127 30.42 30.42 0 002.796-.342l.168-.03.157 1.594-.143.024c-.716.112-1.932.244-3.514.379-1.623.14-2.87.215-3.705.215h-.155V82.6h4.73v-.993H44.71V79.94h6.534zm18.515-.808v8.39h-1.886V83.81H64.16v-1.666h3.714v-3.012h1.886zm-8.333.564c.268 0 .443.02.55.064a.339.339 0 01.224.329c0 .021-.008.091-.033.207a1.26 1.26 0 00-.03.231c0 .842.162 1.644.481 2.378a6.854 6.854 0 001.134 1.758c.322.375.762.803 1.317 1.274l.15.129-1.547 1.007-.094-.074a9.112 9.112 0 01-1.256-1.27 8.753 8.753 0 01-1.097-1.72 8.99 8.99 0 01-1.036 1.778c-.39.526-.831 1.027-1.318 1.496l-.086.079-1.561-.837.14-.138c.522-.513.967-1.014 1.317-1.487.5-.69.885-1.409 1.155-2.142.331-.91.5-1.891.5-2.913v-.149zm-19.311.182v1.592H40.25l-.08 1.877h1.82v1.589h-4.254v.782h5.97v1.588H29.774v-1.588h6.112v-.782h-4.413v-1.59h1.809l-.204-1.876h-1.796v-1.592h10.834zm-3.653 1.592h-3.598l.218 1.877h3.287l.093-1.877z"></path></svg>