<svg id="maturity-advisory-8753" viewBox="0 0 100 100" class="svg-icon svg-icon-maturity-advisory-8753 "><path id="FIll---Black" fill="#000" d="M88.727 100H11.275C5.053 100 0 94.955 0 88.723v-77.45C0 5.05 5.053 0 11.275 0h77.452C94.954 0 100 5.05 100 11.273v77.45C100 94.955 94.954 100 88.727 100"></path><path id="icon" fill="#FFFFFE" d="M66.849 39.06V18.44l6.001 5.913c.023.02.047.023.067.042l4.44 4.373a2.386 2.386 0 003.342 0 2.3 2.3 0 000-3.286L65.174 10.187a.927.927 0 00-.65-.268c-.005 0-.009.003-.012.003-.004 0-.008-.003-.01-.003-.004 0-.008.003-.011.003-.008 0-.011-.003-.014-.003a.919.919 0 00-.65.268L51.21 22.614c-1.662-7.214-8.214-12.62-16.032-12.62-9.075 0-16.455 7.271-16.455 16.213 0 8.147 6.137 14.89 14.094 16.026v10.453H19.938c-1.304 0-2.361 1.046-2.361 2.328 0 1.279 1.057 2.325 2.361 2.325h12.879v11.633c0 1.281 1.058 2.324 2.361 2.324 1.302 0 2.361-1.043 2.361-2.324V57.34h10.676c1.115 7.875 7.978 13.957 16.276 13.957 9.071 0 16.451-7.273 16.451-16.214 0-8.147-6.137-14.893-14.093-16.022m9.347 16.022c0 6.362-5.249 11.536-11.705 11.536-6.46 0-11.708-5.174-11.708-11.536 0-6.355 5.248-11.536 11.708-11.536 6.456 0 11.705 5.181 11.705 11.536M35.178 14.669c6.456 0 11.706 5.179 11.706 11.538 0 6.36-5.25 11.536-11.706 11.536-6.456 0-11.708-5.176-11.708-11.536 0-6.36 5.252-11.538 11.708-11.538m16.185 14.372L62.13 18.439V39.06c-7.16 1.016-12.832 6.582-13.894 13.626H37.539V42.233c7.009-1 12.593-6.355 13.824-13.192"></path><path id="type" fill="#FFFFFE" d="M56.122 79.208v8.406h-1.648c.143.048.275.101.394.158.843.4 1.272 1.048 1.272 1.929 0 .886-.427 1.537-1.263 1.934-.805.38-2.184.574-4.098.574-1.92 0-3.303-.196-4.104-.58-.835-.401-1.261-1.05-1.261-1.928 0-.891.426-1.541 1.262-1.935.808-.386 2.148-.572 4.103-.572.083 0 .167 0 .248.004l-.1-.069a8.15 8.15 0 01-1.637-1.448c-.418-.483-.756-1-1.007-1.536a7.629 7.629 0 01-1.172 1.49 9.202 9.202 0 01-2.097 1.607l-.12.067-.083-.107a4.364 4.364 0 00-.477-.538 6.246 6.246 0 00-.68-.525l-.216-.15.243-.106c1.053-.453 1.943-1.08 2.642-1.862.723-.801 1.11-1.629 1.152-2.465h-2.997v-1.632h7.676v1.632H49.25c.03.815.296 1.58.788 2.273.534.747 1.365 1.451 2.47 2.094l.262.15-.282.114a3.664 3.664 0 00-.838.44 2.914 2.914 0 00-.516.479l-.084.092c1.37.012 2.424.127 3.19.343V84.19h-3.27v-1.667h3.27v-3.314h1.882zm8.266 7.986c1.94 0 3.281.19 4.102.578.848.4 1.277 1.049 1.277 1.929 0 .886-.426 1.537-1.268 1.934-.809.38-2.192.574-4.11.574-1.927 0-3.32-.196-4.133-.58-.847-.401-1.275-1.05-1.275-1.928 0-.892.422-1.54 1.261-1.935.806-.386 2.164-.572 4.146-.572zm-30.34.306v2.615h8.776v1.666H32.228V87.5h1.82zm16.73 1.285c-1.374 0-2.323.085-2.825.25-.453.15-.673.368-.673.666 0 .297.226.516.688.662.512.17 1.456.254 2.81.254 1.363 0 2.306-.084 2.803-.254.456-.146.676-.365.676-.662 0-.298-.22-.515-.676-.667-.499-.164-1.443-.25-2.802-.25zm13.61 0c-1.44 0-2.426.085-2.932.252-.464.149-.69.366-.69.664 0 .297.232.516.703.662.521.17 1.504.254 2.92.254s2.394-.084 2.903-.254c.462-.146.688-.363.688-.662 0-.298-.228-.515-.694-.664-.513-.167-1.488-.252-2.898-.252zm-22.01-9.622v10.214h-1.88v-4.881h-3.571v-1.667h3.571v-3.666h1.88zm-8.313.546c.379 0 .507.034.57.059a.321.321 0 01.207.32c0 .018 0 .047-.043.237a.897.897 0 00-.036.22c0 1.29.315 2.573.936 3.812a9.425 9.425 0 001.89 2.608l.131.129-1.596 1.052-.091-.093c-.423-.435-.852-1.017-1.307-1.775a12.027 12.027 0 01-.92-1.843c-.26.623-.584 1.228-.975 1.802-.467.695-.946 1.258-1.422 1.672l-.1.086-1.455-1.103.14-.117c.806-.68 1.476-1.551 1.995-2.587.656-1.3.986-2.755.986-4.33v-.15zm35.623-.577v8.39h-1.881V83.81h-3.715v-1.666h3.715v-3.012h1.881zm-8.332.564c.27 0 .445.02.554.064a.338.338 0 01.222.329c0 .021-.011.091-.034.207a1.25 1.25 0 00-.029.231c0 .842.162 1.644.48 2.378a6.988 6.988 0 001.134 1.758c.321.377.763.806 1.316 1.274l.15.129-1.547 1.005-.09-.072a8.885 8.885 0 01-2.355-2.99 9.163 9.163 0 01-1.038 1.778 11.794 11.794 0 01-1.317 1.496l-.082.079-1.567-.837.142-.138c.525-.516.969-1.016 1.316-1.487a8.866 8.866 0 001.154-2.14c.333-.91.502-1.893.502-2.915v-.149z"></path></svg>